<svg width="512" height="512" viewBox="0 0 512 512" fill="none" xmlns="http://www.w3.org/2000/svg">
<path d="M346.4 475H164.9V244.8C164.9 230.8 176.3 219.4 190.3 219.4H321C335 219.4 346.4 230.8 346.4 244.8V475Z" fill="#FD3CD6"/>
<path d="M346.4 470H165L170 475V349.9V269.9V248.5C170 238.2 173.9 228.2 185 225.2C191.4 223.4 199.2 224.5 205.7 224.5H318.1C321.4 224.5 324.6 224.5 327.8 225.6C336.1 228.5 341.3 236.3 341.5 244.9C341.6 249 341.5 253.2 341.5 257.4V475.1C341.5 481.5 351.5 481.5 351.5 475.1V345.1V265.6V246.5C351.4 232.7 343.9 220.5 330.5 216C323.3 213.6 314.7 214.5 307.2 214.5H192.9C178.1 214.5 164.2 222.9 160.9 238.1C159.8 243.3 160.1 248.9 160.1 254.2V475C160.1 477.7 162.4 480 165.1 480H346.5C352.8 480 352.8 470 346.4 470Z" fill="#504E55"/>
<path d="M164.9 250.3V370.6C164.9 376.6 160 381.6 153.9 381.6C136.3 381.6 122 367.2 122 349.7V271.4C122 253.8 136.4 239.5 153.9 239.5C156.9 239.5 159.7 240.7 161.6 242.7C163.7 244.5 164.9 247.2 164.9 250.3Z" fill="white"/>
<path d="M159.9 250.3V359.4C159.9 363.3 161.2 370.2 158.9 373.7C154.5 380.7 141.4 374.1 136.8 370.3C130.6 365.1 127.1 357.6 127 349.5C126.7 331.7 127 313.9 127 296.2C127 287.9 126.9 279.7 127 271.4C127.1 263.7 130.1 256.5 135.9 251.3C140.6 247 159.1 238.1 159.9 250.3C160.3 256.7 170.3 256.7 169.9 250.3C168.2 225.6 136.9 234.5 126.1 247.1C118.4 256.1 117 266.6 117 277.9V346.6C117 359.9 121.7 372 132.8 379.9C145 388.6 169.2 390.8 169.9 370.4C170.6 351.3 169.9 332.1 169.9 313V250.4C169.9 243.8 159.9 243.8 159.9 250.3Z" fill="#504E55"/>
<path d="M122 339.8H164.9C171.3 339.8 171.3 329.8 164.9 329.8H122C115.6 329.8 115.6 339.8 122 339.8Z" fill="#504E55"/>
<path opacity="0.24" d="M344.4 241V476.9H308.4V232.1C308.4 227.3 306.2 222.9 302.5 219.3H314.2C330.8 219.4 344.4 229.1 344.4 241Z" fill="#77574E"/>
<path d="M376 161.2C376 227.6 322.1 281.5 255.7 281.5C189.3 281.5 135.4 227.6 135.4 161.2C135.4 120.7 155.4 85 186 63.1C205.7 49.1 229.7 40.9 255.7 40.9C281.7 40.9 305.7 49.1 325.4 63.1C356 84.9 376 120.7 376 161.2Z" fill="#FD3CD6"/>
<path d="M371 161.2C370.7 206.2 344.3 247.4 303.3 266.3C262.6 285 212.8 277.4 179.4 247.7C144.7 216.9 131.6 167.5 146.7 123.5C150.7 111.8 156.7 100.8 164.2 91C167.8 86.3 171.8 81.9 176.1 77.8C177.9 76.1 179.7 74.5 181.5 72.9C182.6 72 183.7 71 184.9 70.1C185.7 69.5 186.5 68.8 187.4 68.2C185.6 68.1 185.6 68 187.4 67.8C209.1 51.6 237.5 44.2 264.4 46C324 50.3 370.6 101.8 371 161.2C371 167.6 381 167.6 381 161.2C380.6 105.4 342.9 55 288.7 40.3C260 32.5 229.1 35.3 202.3 47.8C199.1 49.3 196 50.9 193 52.7C191.4 53.6 189.8 54.6 188.2 55.6C187.6 56 186.8 56.4 186.2 56.9C185.8 57.2 185.3 57.5 184.9 57.8C185.3 57.9 185.7 58 186.1 58C185.8 58.3 184.6 58.2 184.2 58.4L181.8 59.9C180.7 60.7 179.6 61.6 178.5 62.5C175.8 64.6 173.2 66.8 170.7 69.1C161.1 78 152.8 88.5 146.5 99.9C121.3 144.9 126.9 201.9 159.8 241.4C191.3 279.3 243.9 295.2 291.2 281.3C337.3 267.7 372.9 227.4 379.8 179.7C380.7 173.5 381.2 167.3 381.2 161C381 154.7 371 154.7 371 161.2Z" fill="#504E55"/>
<path d="M249.6 478.1H153.2C150.5 478.1 148.4 475.9 148.4 473.3V462.5C148.4 435.3 170.7 413 197.9 413H204.9C232.1 413 254.4 435.3 254.4 462.5V473.3C254.5 476 252.3 478.1 249.6 478.1Z" fill="white"/>
<path d="M249.6 473.1H156.3C155.8 473.1 153.6 473.4 153.2 473.1C152.6 472.6 153.3 465.3 153.3 464C153.3 458.6 153.9 453.5 155.6 448.3C163.5 424.5 188.5 414.7 211.8 418.5C226.2 420.8 238.7 430.3 245 443.4C247.9 449.5 249.3 456.1 249.3 462.8V468.9C249.3 470.9 250.1 473.1 248.1 473.4C241.8 474.3 244.5 483.9 250.8 483C257.6 482.1 259.3 476.1 259.3 470.2C259.3 465.1 259.4 460 258.7 454.9C256.7 440.3 248.6 427.2 236.8 418.5C215.2 402.6 181 404.3 161.1 422.2C149.9 432.3 143.5 446.8 143.2 461.8C143 470.2 141.6 482.5 153.2 483.1C168.3 483.9 183.6 483.1 198.7 483.1H249.4C256.1 483.1 256.1 473.1 249.6 473.1Z" fill="#504E55"/>
<path d="M358.2 478.1H261.6C259 478.1 256.9 476 256.9 473.4V463.8C256.9 435.8 279.8 413 307.7 413H312.1C340.1 413 362.9 435.9 362.9 463.8V473.4C362.9 476 360.8 478.1 358.2 478.1Z" fill="white"/>
<path d="M358.2 473.1H265.5C264.7 473.1 262.4 473.5 261.7 473.1C261.7 473.1 261.9 466.7 261.9 465.5C261.9 460.3 262.4 455.4 263.9 450.4C271.2 426.4 296.5 414.2 320.3 418.7C334.3 421.4 346.3 430.4 352.9 443C356.1 449.2 357.8 456.1 357.9 463.1V468.6C357.9 470.7 358.7 473 356.9 473.3C350.6 474.2 353.3 483.8 359.6 482.9C366.2 482 368 476.2 368 470.4C368 465 368.1 459.6 367.2 454.2C364.8 439.8 356.4 427 344.7 418.4C322.4 402.2 288.5 404.6 268.8 423.8C258.3 434.1 252.2 448.3 251.9 463C251.8 471.3 250.7 482.4 261.9 483C277.3 483.9 293 483 308.4 483H358.2C364.6 483.1 364.6 473.1 358.2 473.1Z" fill="#504E55"/>
<path d="M297.8 366.4H213.4C206.8 366.4 201.4 361 201.4 354.4V307.4C201.4 300.8 206.8 295.4 213.4 295.4H297.8C304.4 295.4 309.8 300.8 309.8 307.4V354.4C309.8 361 304.4 366.4 297.8 366.4Z" fill="white"/>
<path d="M297.8 361.4H235.4C228.1 361.4 220.6 362 213.4 361.4C207.1 360.9 206.4 355.8 206.4 350.8V333.4V314.2C206.4 310.7 205.6 305.8 208 302.9C210.4 300.1 213.8 300.4 217 300.4H270.6C279.4 300.4 288.3 299.9 297.1 300.4C302.6 300.7 304.6 304.5 304.6 309.5V349.1C304.8 354.3 305.2 361 297.8 361.4C291.4 361.7 291.4 371.7 297.8 371.4C307.5 370.9 314.4 363.8 314.8 354.2C315 349.5 314.8 344.8 314.8 340.2V317.4C314.8 313.3 315.2 308.9 314.6 304.9C313.3 296.4 306 290.8 297.6 290.5C294.2 290.4 290.8 290.5 287.3 290.5H244.3C234.2 290.5 224.1 290.2 214 290.5C206 290.8 198.9 295.5 196.9 303.6C195.9 307.7 196.4 312.4 196.4 316.6C196.4 329.1 196 341.6 196.4 354.1C196.7 362.5 202.2 369.9 210.8 371.3C213.9 371.8 217.1 371.5 220.2 371.5H297.9C304.3 371.4 304.3 361.4 297.8 361.4Z" fill="#504E55"/>
<path d="M230.7 327.1C236.444 327.1 241.1 322.444 241.1 316.7C241.1 310.956 236.444 306.3 230.7 306.3C224.956 306.3 220.3 310.956 220.3 316.7C220.3 322.444 224.956 327.1 230.7 327.1Z" fill="#ECECEC"/>
<path d="M236.2 316.7C235.8 323.7 225.3 323.7 225.3 316.7C225.3 309.7 235.8 309.7 236.2 316.7C236.5 323.1 246.5 323.1 246.2 316.7C245.7 308.3 239.5 301.3 230.8 301.3C222.4 301.3 215.4 308.4 215.4 316.7C215.4 324.9 222.1 331.8 230.3 332.1C239.2 332.5 245.9 325.2 246.3 316.7C246.5 310.3 236.5 310.3 236.2 316.7Z" fill="#504E55"/>
<path d="M230.7 355.6C236.444 355.6 241.1 350.944 241.1 345.2C241.1 339.456 236.444 334.8 230.7 334.8C224.956 334.8 220.3 339.456 220.3 345.2C220.3 350.944 224.956 355.6 230.7 355.6Z" fill="#F4A89C"/>
<path d="M236.2 345.2C235.8 352.2 225.3 352.2 225.3 345.2C225.3 338.2 235.8 338.2 236.2 345.2C236.5 351.6 246.5 351.6 246.2 345.2C245.7 336.8 239.5 329.8 230.8 329.8C222.4 329.8 215.4 336.9 215.4 345.2C215.4 353.4 222.1 360.3 230.3 360.6C239.2 361 245.9 353.7 246.3 345.2C246.5 338.8 236.5 338.8 236.2 345.2Z" fill="#504E55"/>
<path opacity="0.24" d="M371.7 160.3C371.5 207.3 343.1 247.8 302.5 266.5C323.6 240.2 336.9 206.4 336.9 168C336.9 118.2 315.6 76.2 282.4 49.4C281.4 48.6 280.1 48.9 279.1 48.1C294.8 51.6 309.1 58.1 321.8 67.1C351.8 88.5 371.8 121.8 371.7 160.3Z" fill="#77574E"/>
<path d="M243.8 87H269.9C276.3 87 276.3 77 269.9 77H243.8C237.4 77 237.3 87 243.8 87Z" fill="#504E55"/>
<path d="M351 157.8C351 182.3 341.7 204.7 326.5 221.6C323.8 224.5 320.1 226.2 316.1 226.2L195.7 226.6C191.7 226.6 187.9 225 185.3 222.1C169.8 205.2 160.4 182.6 160.4 157.9C160.4 137.2 167 118.1 178.1 102.5C180.8 98.8 185.1 96.5 189.7 96.5H321.7C326.3 96.5 330.6 98.7 333.2 102.5C344.4 118 351 137.1 351 157.8Z" fill="#CFC9E5"/>
<path d="M346 157.8C345.9 172.5 342.5 187 335.6 200C331.7 207.4 325 220.9 315.6 221.2C305.1 221.5 294.5 221.3 284 221.3C255.2 221.4 226.3 221.8 197.5 221.6C188.9 221.5 184 213.1 179.7 206.5C171.8 194.2 166.9 180 165.8 165.3C164.6 150.4 167 135.3 173 121.6C176.4 113.9 181.1 101.6 190.8 101.4C218.4 100.8 246 101.4 273.5 101.4H314.7C317 101.4 319.5 101.2 321.8 101.4C328.8 101.9 332 108.9 335 114.4C338.6 120.9 341.3 127.8 343.2 135C345 142.5 345.9 150.1 346 157.8C346.1 164.2 356.1 164.2 356 157.8C355.9 141.9 352.2 126.4 345.1 112.2C340 102.1 333.8 91.7 321.2 91.4C310.1 91.2 298.9 91.4 287.8 91.4H192.3C185.2 91.4 178.8 93.4 174.2 99.3C164.7 111.8 158.7 127.4 156.5 142.9C154.2 158.5 155.5 174.7 160.6 189.6C163 196.8 166.2 203.7 170.2 210.1C173.9 216.1 178.4 223 184 227.4C188.8 231.2 194.3 231.5 200.1 231.4C206 231.4 212 231.4 217.9 231.3C236.3 231.2 254.8 231.2 273.2 231.1C286.7 231.1 300.3 231 313.8 231C322.4 231 328.2 227.5 333.6 220.8C343 209.1 349.9 195.5 353.3 180.8C355.1 173.2 355.9 165.4 356 157.6C356 151.4 346 151.4 346 157.8Z" fill="#504E55"/>
<path d="M181.6 111.8C177.5 118.9 174.5 126.5 173 134.6C171.3 143.2 184.5 146.9 186.2 138.2C187.6 131.2 189.9 124.9 193.5 118.7C197.9 111.1 186 104.2 181.6 111.8ZM182.4 166.4C182 163.4 181.9 159.9 182 156.6C182.1 152.9 178.8 149.7 175.1 149.7C171.3 149.7 168.4 152.8 168.2 156.6C168 161.1 168.4 165.5 169.1 170C169.6 173.7 174.3 175.7 177.5 174.8C181.5 173.7 182.9 170 182.4 166.4Z" fill="white"/>
<path opacity="0.28" d="M357.9 465V466C358.5 474.8 359.4 473.2 349.6 473.1H341.8C343.3 471.2 343.6 470.7 343.6 468V466.9C343.6 452.8 338.3 440 329.9 430.7C324.4 424.7 317.6 420.4 310.1 418C310.9 418 311.7 418.1 312.5 418.1C325.6 418.9 337.6 424.1 345.7 432.7C353.8 441.3 357.9 452.2 357.9 465Z" fill="#77574E"/>
<path d="M362.5 381.5H364.3C378.1 381.5 389.4 370.2 389.4 356.4V264.3C389.4 250.5 378.1 239.2 364.3 239.2H357.8C351.5 239.2 346.4 244.3 346.4 250.6V365.4C346.4 374.3 353.6 381.5 362.5 381.5Z" fill="white"/>
<path d="M362.5 386.5C380 386.5 394 373.9 394.4 356.1C394.6 347.9 394.4 339.7 394.4 331.5C394.4 309.2 394.9 286.9 394.4 264.7C394.1 247.6 380.8 234.4 363.6 234.3C356 234.2 348.3 234.7 343.9 242C341.8 245.5 341.5 249.2 341.5 253V359.4C341.5 361.4 341.4 363.4 341.5 365.4C341.8 377.2 350.7 386 362.5 386.5C368.9 386.8 368.9 376.8 362.5 376.5C351.7 376 351.4 366.5 351.4 358.4V329.9V260.9C351.4 256.1 349.8 247 355.3 244.7C360.3 242.6 369.4 244.3 373.8 246.7C380.4 250.3 384.2 257.1 384.3 264.5C384.7 283.1 384.3 301.7 384.3 320.3V352.9C384.3 356.4 384.4 359.7 383.2 363.1C380 372.2 371.6 376.6 362.5 376.6C356 376.5 356 386.5 362.5 386.5Z" fill="#504E55"/>
<path d="M346.4 343.9H389.3C395.7 343.9 395.7 333.9 389.3 333.9H346.4C340 333.9 339.9 343.9 346.4 343.9Z" fill="#504E55"/>
<path opacity="0.25" d="M384.5 269.3V349.8C386.1 369.9 373.3 377.7 360.4 376C358.9 375.8 357.4 375.6 356.1 374.8C367.3 371.2 375.5 359.7 375.5 346.2V273.2C375.5 259.7 367.3 248.2 356.1 244.6C358.4 243.7 358.9 243.4 360.4 243.4C375.2 243.5 385.6 253.8 384.5 269.3Z" fill="#6F635C"/>
<path d="M371.6 128.9L396.7 105.1Z" fill="#DAE7BE"/>
<path d="M375.1 132.4C383.5 124.5 391.8 116.6 400.2 108.6C404.9 104.2 397.8 97.1 393.1 101.5C384.7 109.4 376.4 117.3 368 125.3C363.4 129.8 370.4 136.8 375.1 132.4Z" fill="#504E55"/>
<path d="M139.7 128.9L114.6 105.1Z" fill="#DAE7BE"/>
<path d="M143.3 125.3C134.9 117.4 126.6 109.5 118.2 101.5C113.5 97.1 106.4 104.1 111.1 108.6C119.5 116.5 127.8 124.4 136.2 132.4C140.9 136.8 147.9 129.8 143.3 125.3Z" fill="#504E55"/>
<path d="M114.6 109.9C117.251 109.9 119.4 107.751 119.4 105.1C119.4 102.449 117.251 100.3 114.6 100.3C111.949 100.3 109.8 102.449 109.8 105.1C109.8 107.751 111.949 109.9 114.6 109.9Z" fill="#FFE0A6"/>
<path d="M114.4 105.1C114.4 104.6 114.5 105 114.3 105.3C114.4 105.1 114.8 104.6 114.4 105C114 105.4 114.5 105 114.6 104.9C114.9 104.7 113.9 104.9 114.6 104.9C115.1 104.9 114.7 105 114.4 104.8C114.6 104.9 115.1 105.3 114.7 104.9C114.2 104.4 114.9 105.1 114.8 105.1C114.9 105.3 114.9 105.3 114.8 105C114.7 104.7 114.7 104.7 114.8 105.1C114.8 105.8 114.9 104.9 114.9 104.9C115 105 114.7 105.3 114.6 105.4C115.1 104.7 114.8 105.1 114.6 105.3C114.3 105.5 115.1 105.3 114.8 105.2C114.2 105.1 114.4 105.1 114.8 105.3C114.6 105.2 114.5 105.2 114.3 105C114.9 105.6 114.5 105.1 114.4 105.1C114.3 104.9 114.3 104.9 114.4 105.1C114.5 105.5 114.5 105.5 114.4 105.1C114.5 107.8 116.6 110.1 119.4 110.1C122 110.1 124.5 107.8 124.4 105.1C124.1 99.8 120.1 95.3 114.6 95.3C109.2 95.3 104.9 99.8 104.8 105.1C104.7 110.4 109.2 114.7 114.3 114.9C119.9 115.1 124.1 110.5 124.3 105.1C124.4 102.4 121.9 100.1 119.3 100.1C116.6 100.1 114.6 102.4 114.4 105.1Z" fill="#5F5E60"/>
<path d="M396.7 109.9C399.351 109.9 401.5 107.751 401.5 105.1C401.5 102.449 399.351 100.3 396.7 100.3C394.049 100.3 391.9 102.449 391.9 105.1C391.9 107.751 394.049 109.9 396.7 109.9Z" fill="#CFE1AF"/>
<path d="M396.4 105.1C396.4 104.6 396.5 105 396.3 105.3C396.4 105.1 396.8 104.6 396.4 105C396 105.4 396.5 105 396.6 104.9C396.9 104.7 395.9 104.9 396.6 104.9C397.1 104.9 396.7 105 396.4 104.8C396.6 104.9 397.1 105.3 396.7 104.9C396.2 104.4 396.9 105.1 396.8 105.1C396.9 105.3 396.9 105.3 396.8 105C396.7 104.7 396.7 104.7 396.8 105.1C396.8 105.8 396.9 104.9 396.9 104.9C397 105 396.7 105.3 396.6 105.4C397.1 104.7 396.8 105.1 396.6 105.3C396.3 105.5 397.1 105.3 396.8 105.2C396.2 105.1 396.4 105.1 396.8 105.3C396.6 105.2 396.5 105.2 396.3 105C396.9 105.6 396.5 105.1 396.4 105.1C396.4 104.9 396.4 104.9 396.4 105.1C396.5 105.5 396.5 105.5 396.4 105.1C396.5 107.8 398.6 110.1 401.4 110.1C404 110.1 406.5 107.8 406.4 105.1C406.1 99.8 402.1 95.3 396.6 95.3C391.2 95.3 386.9 99.8 386.8 105.1C386.7 110.4 391.2 114.7 396.3 114.9C401.9 115.1 406.1 110.5 406.3 105.1C406.4 102.4 403.9 100.1 401.3 100.1C398.6 100.1 396.6 102.4 396.4 105.1Z" fill="#5F5E60"/>
<path d="M307.6 397.2H312.2C314.8 397.2 317.3 394.9 317.2 392.2C317.1 389.5 315 387.2 312.2 387.2H307.6C305 387.2 302.5 389.5 302.6 392.2C302.7 394.9 304.8 397.2 307.6 397.2Z" fill="#504E55"/>
<path d="M199.2 397.2H203.8C206.4 397.2 208.9 394.9 208.8 392.2C208.7 389.5 206.6 387.2 203.8 387.2H199.2C196.6 387.2 194.1 389.5 194.2 392.2C194.3 394.9 196.4 397.2 199.2 397.2Z" fill="#504E55"/>
<g opacity="0.28">
<path d="M249.5 465V466C250.1 474.8 251 473.2 241.2 473.1H233.4C234.9 471.2 235.2 470.7 235.2 468V466.9C235.2 452.8 229.9 440 221.5 430.7C216 424.7 209.2 420.4 201.7 418C202.5 418 203.3 418.1 204.1 418.1C217.2 418.9 230.7 423.7 238.8 432.3C246.9 440.9 249.5 452.2 249.5 465Z" fill="#77574E"/>
</g>
</svg>
