<svg width="54" height="56" viewBox="0 0 54 56" fill="none" xmlns="http://www.w3.org/2000/svg">
<path d="M27.25 54.16C41.1951 54.16 52.5 42.4835 52.5 28.08C52.5 13.6764 41.1951 2 27.25 2C13.3048 2 2 13.6764 2 28.08C2 42.4835 13.3048 54.16 27.25 54.16Z" stroke="white" stroke-width="3" stroke-linecap="round" stroke-linejoin="round"/>
<path d="M3.2625 29.384L17.15 34.6L14.625 43.728L17.15 51.552" stroke="white" stroke-width="3" stroke-linecap="round" stroke-linejoin="round"/>
<path d="M39.875 50.248L38.6125 43.728L32.3 41.12V31.992L39.875 29.384L51.2375 30.688" stroke="white" stroke-width="3" stroke-linecap="round" stroke-linejoin="round"/>
<path d="M44.925 11.128L43.6625 15.04L34.825 16.344V24.168L41.1375 21.56H46.1875L51.2375 24.168" stroke="white" stroke-width="3" stroke-linecap="round" stroke-linejoin="round"/>
<path d="M3.2625 24.168L9.575 18.952L15.8875 17.648L20.9375 9.824L18.4125 4.608" stroke="white" stroke-width="3" stroke-linecap="round" stroke-linejoin="round"/>
</svg>
