<svg width="512" height="512" viewBox="0 0 512 512" fill="none" xmlns="http://www.w3.org/2000/svg">
<path d="M256 405.536C338.586 405.536 405.536 338.586 405.536 256C405.536 173.414 338.586 106.464 256 106.464C173.414 106.464 106.464 173.414 106.464 256C106.464 338.586 173.414 405.536 256 405.536Z" fill="#F6D02C"/>
<path d="M109.388 285.56C151.903 286.988 267.331 282.947 398.85 211.753C393.74 195.305 385.83 179.871 375.528 166.149C332.812 195.535 235.125 250.071 107.071 242.419C105.717 257.085 106.563 271.594 109.389 285.559L109.388 285.56ZM400.734 293.587C404.71 278.277 406.156 262.907 405.348 247.915C371.598 273.225 268.111 340.282 127.698 332.791C134.205 343.665 142.081 353.721 151.17 362.671C195.524 362.957 288.866 356.228 397.1 305.508C398.462 301.618 399.68 297.648 400.734 293.588V293.587ZM245.488 405.184C280.915 407.721 315.272 397.442 343.031 377.594C315.059 389.127 282.243 399.354 245.488 405.184ZM348.02 138.097C332.375 125.872 314.03 116.575 293.586 111.265C221.703 92.598 148.46 129.518 119.336 195.275C168.356 193.599 252.409 183.019 348.021 138.097H348.02Z" fill="#FFD935"/>
<path d="M319.166 236.47C334.845 236.47 347.555 223.76 347.555 208.081C347.555 192.402 334.845 179.692 319.166 179.692C303.487 179.692 290.777 192.402 290.777 208.081C290.777 223.76 303.487 236.47 319.166 236.47Z" fill="#FBCD08"/>
<path opacity="0.1" d="M331.25 189.492C337.29 191.06 342.364 194.462 346.042 198.944C343.062 190.214 335.899 183.096 326.302 180.604C311.127 176.664 295.63 185.771 291.689 200.946C289.316 210.082 291.677 219.33 297.239 226.108C295.509 221.033 295.189 215.413 296.637 209.835C300.577 194.658 316.075 185.551 331.25 189.492Z" fill="black"/>
<path d="M234.463 293.336C245.154 293.336 253.821 284.669 253.821 273.978C253.821 263.287 245.154 254.62 234.463 254.62C223.772 254.62 215.105 263.287 215.105 273.978C215.105 284.669 223.772 293.336 234.463 293.336Z" fill="#FBCD08"/>
<path opacity="0.1" d="M242.703 261.303C246.821 262.373 250.281 264.693 252.788 267.747C250.758 261.794 245.872 256.941 239.328 255.242C228.981 252.555 218.414 258.765 215.728 269.112C214.108 275.342 215.72 281.649 219.513 286.27C218.333 282.81 218.115 278.977 219.103 275.173C221.789 264.825 232.355 258.615 242.703 261.303Z" fill="black"/>
<path d="M307.493 156.791C314.443 156.791 320.077 151.157 320.077 144.207C320.077 137.257 314.443 131.623 307.493 131.623C300.543 131.623 294.909 137.257 294.909 144.207C294.909 151.157 300.543 156.791 307.493 156.791Z" fill="#FBCD08"/>
<path opacity="0.1" d="M312.85 135.967C315.528 136.662 317.777 138.171 319.407 140.157C318.087 136.285 314.911 133.131 310.657 132.027C303.93 130.28 297.061 134.317 295.314 141.044C294.262 145.094 295.309 149.194 297.774 152.197C297.007 149.947 296.866 147.457 297.507 144.984C299.254 138.257 306.123 134.22 312.85 135.967Z" fill="black"/>
<path d="M163.289 274.853C173.98 274.853 182.647 266.186 182.647 255.495C182.647 244.804 173.98 236.137 163.289 236.137C152.598 236.137 143.931 244.804 143.931 255.495C143.931 266.186 152.598 274.853 163.289 274.853Z" fill="#FBCD08"/>
<path opacity="0.1" d="M171.53 242.82C175.648 243.888 179.107 246.208 181.614 249.263C179.584 243.309 174.698 238.457 168.154 236.758C157.806 234.071 147.239 240.281 144.552 250.628C142.934 256.858 144.544 263.164 148.337 267.786C147.157 264.326 146.939 260.493 147.927 256.689C150.614 246.341 161.182 240.131 171.529 242.819L171.53 242.82Z" fill="black"/>
<path d="M230.586 385.278C241.277 385.278 249.944 376.611 249.944 365.92C249.944 355.229 241.277 346.562 230.586 346.562C219.895 346.562 211.228 355.229 211.228 365.92C211.228 376.611 219.895 385.278 230.586 385.278Z" fill="#FBCD08"/>
<path opacity="0.1" d="M238.826 353.245C242.944 354.315 246.404 356.635 248.911 359.689C246.881 353.735 241.996 348.882 235.451 347.183C225.104 344.495 214.537 350.705 211.851 361.053C210.231 367.283 211.841 373.589 215.635 378.21C214.455 374.75 214.237 370.918 215.225 367.114C217.913 356.768 228.48 350.558 238.827 353.244L238.826 353.245Z" fill="black"/>
<path d="M302.221 373.138C312.912 373.138 321.578 364.472 321.578 353.781C321.578 343.09 312.912 334.424 302.221 334.424C291.53 334.424 282.864 343.09 282.864 353.781C282.864 364.472 291.53 373.138 302.221 373.138Z" fill="#FBCD08"/>
<path opacity="0.1" d="M310.462 341.105C314.58 342.175 318.039 344.495 320.547 347.55C318.517 341.596 313.631 336.743 307.087 335.044C296.739 332.356 286.173 338.567 283.485 348.914C281.867 355.144 283.477 361.45 287.27 366.071C286.09 362.611 285.872 358.781 286.86 354.976C289.547 344.63 300.114 338.419 310.462 341.105Z" fill="black"/>
<path d="M358.827 295.926C364.946 295.926 369.906 290.966 369.906 284.847C369.906 278.728 364.946 273.768 358.827 273.768C352.708 273.768 347.748 278.728 347.748 284.847C347.748 290.966 352.708 295.926 358.827 295.926Z" fill="#FBCD08"/>
<path opacity="0.1" d="M363.542 277.593C365.899 278.205 367.879 279.533 369.314 281.281C368.152 277.875 365.356 275.097 361.611 274.125C355.689 272.588 349.641 276.142 348.104 282.063C347.178 285.628 348.099 289.238 350.27 291.883C349.594 289.903 349.47 287.708 350.035 285.531C351.572 279.611 357.62 276.056 363.542 277.594V277.593Z" fill="black"/>
<path d="M220.465 167.495C226.584 167.495 231.544 162.535 231.544 156.416C231.544 150.297 226.584 145.337 220.465 145.337C214.346 145.337 209.386 150.297 209.386 156.416C209.386 162.535 214.346 167.495 220.465 167.495Z" fill="#FBCD08"/>
<path opacity="0.1" d="M225.18 149.162C227.538 149.774 229.518 151.102 230.953 152.85C229.791 149.442 226.995 146.665 223.25 145.693C217.328 144.155 211.28 147.709 209.742 153.631C208.816 157.197 209.738 160.806 211.909 163.451C211.232 161.471 211.109 159.277 211.673 157.101C213.21 151.179 219.258 147.624 225.18 149.162Z" fill="black"/>
<path d="M154.027 177.562C157.241 177.562 159.846 174.957 159.846 171.743C159.846 168.529 157.241 165.924 154.027 165.924C150.813 165.924 148.208 168.529 148.208 171.743C148.208 174.957 150.813 177.562 154.027 177.562Z" fill="#FBCD08"/>
<path opacity="0.1" d="M156.504 167.933C157.742 168.255 158.782 168.953 159.534 169.871C158.924 168.081 157.456 166.623 155.489 166.113C152.379 165.305 149.201 167.173 148.394 170.283C147.908 172.155 148.392 174.05 149.532 175.439C149.178 174.399 149.112 173.247 149.408 172.104C150.215 168.994 153.392 167.126 156.502 167.934L156.504 167.933Z" fill="black"/>
<path d="M391.387 257.124C394.601 257.124 397.206 254.519 397.206 251.305C397.206 248.091 394.601 245.486 391.387 245.486C388.173 245.486 385.568 248.091 385.568 251.305C385.568 254.519 388.173 257.124 391.387 257.124Z" fill="#FBCD08"/>
<path opacity="0.1" d="M393.864 247.495C395.101 247.815 396.141 248.515 396.894 249.432C396.284 247.642 394.816 246.184 392.849 245.672C389.739 244.865 386.561 246.732 385.753 249.842C385.267 251.715 385.751 253.61 386.891 255C386.537 253.96 386.471 252.808 386.768 251.664C387.575 248.554 390.751 246.687 393.862 247.494L393.864 247.495Z" fill="black"/>
<path d="M145.077 308.292C148.291 308.292 150.896 305.687 150.896 302.473C150.896 299.259 148.291 296.654 145.077 296.654C141.863 296.654 139.258 299.259 139.258 302.473C139.258 305.687 141.863 308.292 145.077 308.292Z" fill="#FBCD08"/>
<path opacity="0.1" d="M147.554 298.662C148.792 298.984 149.831 299.682 150.584 300.6C149.974 298.81 148.506 297.352 146.539 296.84C143.429 296.033 140.251 297.9 139.443 301.01C138.957 302.883 139.441 304.78 140.581 306.167C140.226 305.127 140.161 303.977 140.457 302.832C141.267 299.722 144.442 297.854 147.553 298.662H147.554Z" fill="black"/>
<path d="M187.342 361.084C190.556 361.084 193.161 358.479 193.161 355.265C193.161 352.051 190.556 349.446 187.342 349.446C184.128 349.446 181.523 352.051 181.523 355.265C181.523 358.479 184.128 361.084 187.342 361.084Z" fill="#FBCD08"/>
<path opacity="0.1" d="M189.818 351.455C191.056 351.775 192.096 352.475 192.85 353.393C192.24 351.603 190.77 350.143 188.804 349.633C185.694 348.825 182.517 350.693 181.709 353.803C181.222 355.675 181.706 357.571 182.846 358.96C182.492 357.92 182.426 356.768 182.723 355.624C183.531 352.514 186.707 350.647 189.817 351.454L189.818 351.455Z" fill="black"/>
<path opacity="0.1" d="M351.36 140.785C361.604 168.458 363.79 199.431 355.81 230.157C335.05 310.092 253.423 358.064 173.49 337.307C151.573 331.614 132.067 321.339 115.714 307.785C132.119 352.105 169.204 387.955 218.414 400.735C298.348 421.493 379.976 373.521 400.734 293.587C415.802 235.567 394.652 176.665 351.361 140.785H351.36Z" fill="black"/>
<path d="M112.456 363.093C112.4 370.959 105.978 377.29 98.112 377.235C105.978 377.291 112.31 383.715 112.254 391.58C112.31 383.714 118.734 377.382 126.599 377.438C118.731 377.381 112.4 370.958 112.456 363.093ZM432.436 274.908C432.38 282.774 425.958 289.106 418.092 289.05C425.958 289.107 432.289 295.53 432.234 303.395C432.29 295.529 438.714 289.198 446.579 289.253C438.711 289.197 432.379 282.773 432.435 274.908H432.436ZM159.75 58.352C159.63 74.889 146.13 88.2 129.593 88.082C146.13 88.2 159.441 101.702 159.323 118.238C159.441 101.701 172.943 88.39 189.479 88.508C172.939 88.391 159.629 74.888 159.749 58.352H159.75Z" fill="#F8DD4E"/>
</svg>
